<svg xmlns="http://www.w3.org/2000/svg" viewBox="0 0 129.5 40"><path d="M123.6 36.4c-.2.4-.9 1.7-3.9 1.7-2.5 0-3.4-1.1-3.2-2.4.2-2.5 2.8-3.3 4.5-3.3 1.5 0 3.3.7 3.2 2.4 0 .3-.1.6-.2 1h-5c0 .6.1 1.1 1 1.1.6 0 .9-.2 1.1-.4h2.5zm-1.8-1.7v-.2c0-.4-.3-.8-.9-.8-.7 0-1.2.3-1.5.9l2.4.1zM113.8 32.3h2.8l-2.1 5.8h-2.8l2.1-5.8zm2.6-.5h-2.8l.6-1.4h2.8l-.6 1.4zM110.5 37.1c-.6 1.6-1 2.9-4.4 2.9-.8 0-3.3-.1-3-1.9h2.6c0 .2 0 .4.2.5.1.1.3.1.6.1.8 0 1-.5 1.2-1l.2-.6c-.4.4-1.1.6-1.7.6-1.7 0-2.6-.9-2.5-2.2.1-1.6 1.5-3.2 3.6-3.2.9 0 1.6.2 2 .9l.2-.7h2.6l-1.6 4.6zm-4.1-1.8c0 .5.2.9.8.9 1.3 0 1.6-1.2 1.6-1.6 0-.3 0-.9-.9-.9-1 0-1.4.9-1.5 1.6zM96.2 36.4c-.2.4-.9 1.7-3.9 1.7-2.5 0-3.3-1.1-3.2-2.4.2-2.5 2.8-3.3 4.5-3.3 1.5 0 3.3.7 3.2 2.4 0 .3 0 .6-.2 1h-4.9c0 .6.1 1.1 1 1.1.6 0 .9-.2 1.1-.4h2.4zm-1.9-1.7v-.2c0-.4-.3-.8-.9-.8-.7 0-1.2.3-1.5.9l2.4.1zM78.8 36.4c-.2.4-.9 1.7-3.8 1.7-2.5 0-3.4-1.1-3.2-2.4.2-2.5 2.8-3.3 4.5-3.3 1.5 0 3.3.7 3.2 2.4 0 .3-.1.6-.2 1h-4.9c0 .6.1 1.1 1 1.1.6 0 .9-.2 1.1-.4h2.3zM77 34.7v-.2c0-.4-.2-.8-.9-.8s-1.2.3-1.5.9l2.4.1zM44.1 34.1c.6-1.4 2-1.8 3.7-1.8 1.3 0 3.4.1 3.2 1.5-.1.9-1.2 3.3-1.2 3.7v.5h-2.6c0-.2-.1-.3 0-.5-.5.4-1.4.7-2.2.7-1.2 0-2.2-.4-2.1-1.5.1-1.4 1.6-1.9 3.6-2 .8 0 1.9 0 2-.6 0-.4-.4-.5-.8-.5-.5 0-.9.1-1.1.6h-2.5zm2.4 3c.9 0 1.4-.6 1.6-1.4-.4.2-1 .2-1.5.3-.4.1-.9.2-.9.7 0 .3.3.4.8.4zM58.3 37.9h-2.6l.3-.7c-.6.5-1.4.8-2.3.8-1.2 0-2.2-.4-2.1-1.5 0-.5.3-1.2 1.4-4.3h2.7l-1 2.9-.2.6c0 .3.3.5.7.5 1.2 0 1.3-1.1 1.6-1.8l.8-2.3h2.7l-2 5.8zM36.4 30.4H39l-.8 2.6c.5-.4 1.2-.7 2-.7.9 0 2.3.4 2.2 2.2-.1 1-.9 3.6-3.8 3.6-.8 0-1.7-.1-2-.9l-.3.7h-2.5l2.6-7.5zm.7 5.3c0 .5.2.9.8.9 1 0 1.5-1.1 1.6-1.9 0-.6-.2-1-.9-1-1 0-1.4 1.2-1.5 2zM93.9 25h7.4l3.3-9.1c.5-1.4 1.5-2.3 3.3-2.3 1.2 0 1.8.4 1.7 1.5 0 .4-.3 1.1-.4 1.5L106 25h7.4l3.5-9.7c.4-1.2 1.5-1.9 3-1.9 1.2 0 1.8.6 1.7 1.6 0 .4-.6 2-.7 2.3l-2.8 7.6h7.4l3.3-9.1c.2-.7.6-1.8.7-2.5.3-3.3-1.9-4.7-5.7-4.7-2.6 0-4.8.9-6.5 2.5-.3-2-2.4-2.6-4.9-2.6-2.4 0-4.7 1-6.3 2.5l.7-2.1h-7.1L93.9 25zM80.9 20.3c.1-1.2 1.4-1.7 2.6-1.8 1.4-.1 2.8-.2 4.1-.7-.7 2.3-1.9 3.9-4.5 3.9-1.2 0-2.3-.3-2.2-1.4zm3-6.5c.5-1.1 1.6-1.6 3.1-1.6 1.1 0 2.3.3 2.2 1.3-.2 1.9-3.5 1.7-5.6 1.8-5.6.3-9.4 1.4-9.9 5.6-.3 3 2.5 4.1 5.8 4.1 2.2 0 4.7-.6 6.1-1.9-.1.5 0 1 .1 1.5h7.2c-.2-.7-.1-.2-.1-1.4.1-1 3.2-8 3.5-10.4.4-3.7-5.5-4.1-8.9-4.1-4.7 0-8.8 1-10.4 5.1h6.9zM61.1 14.9c.7-1.5 2.2-2.4 4.1-2.4 1.9 0 2.7.8 2.6 1.9 0 .1-.1.3-.1.5h-6.6zm4.6 5.2c-.4.5-1.5 1.1-3 1.1-2.3 0-2.9-1.4-2.7-3h13.9c.4-1 .6-1.9.7-2.7.5-4.9-4.5-6.8-8.9-6.8-4.9 0-12 2.4-12.7 9.5-.4 3.8 2 6.9 9 6.8 8.5 0 10.3-3.9 10.9-5l-7.2.1z" fill="#64B32B"/><path d="M48.7 17.8l1.8-5.2h4l1.4-3.8h-4.1l1.7-4.5-11 5.6-1.4.7-.8 2.1h2.6l-2.4 6.6c-.3.7-.5 1.3-.6 2.2-.1 1.2.5 2.4 1.7 3 1.4.6 3.1.6 4.7.6 1.4 0 2.7-.2 4.1-.4l1.6-4.4c-.6 0-1.3.1-2.5.1s-1.5-.4-1.4-.9c.1-.6.4-1.2.6-1.7M19.1 0l-7.5 7.5 16.3 1.2M0 19.3l5.7 5.8 3-14.5M7.7 26.5l11.2 11.1 19.1-19-4.5-4.6" fill="#64B32B"/><path fill="#EC6500" d="M6.7 25.5l3.5-16.8 26.9 2"/><path d="M66.4 33.7c.9 0 1.6.5 1.5 1.2 0 .7-.9 1.2-1.8 1.2s-1.6-.5-1.5-1.2c0-.6.9-1.2 1.8-1.2M81.9 32.4h2.6l-.2.7c.6-.5 1.4-.9 2.2-.9 1.2 0 2.2.4 2.1 1.5 0 .2-.1.6-.3 1.1L87.2 38h-2.7l.9-2.6c.1-.3.3-.7.3-.9 0-.3-.3-.5-.7-.5-.9 0-1.2.5-1.4 1.1l-1.1 3h-2.7l2.1-5.7zM99.2 32.4h2.5l-.3.9c.5-.6 1.4-1 2.1-1 .4 0 .7 0 .9.1l-.7 1.9c-.3-.1-.7-.1-1-.1-1.1 0-1.7.4-2.1 1.6l-.8 2.4h-2.6l2-5.8z" fill="#64B32B"/></svg>